<svg xmlns="http://www.w3.org/2000/svg" width="200" height="200" fill="none" viewBox="0 0 200 200"><path fill="#fff" fill-rule="evenodd" d="M28.2302 89.7875C22.5899 95.4278 22.5899 104.573 28.2302 110.213L89.7875 171.771C95.4278 177.41 104.573 177.41 110.213 171.771L171.771 110.213C177.41 104.573 177.41 95.4278 171.771 89.7875L110.213 28.2302C104.573 22.5899 95.4278 22.5899 89.7875 28.2302L28.2302 89.7875ZM63.913 111.201C64.9675 111.716 66.305 111.973 67.9254 111.973C68.697 111.973 69.4043 111.883 70.0473 111.703C70.6903 111.548 71.269 111.317 71.7834 111.008C72.2978 110.7 72.7479 110.34 73.1337 109.928C73.5195 109.517 73.8538 109.054 74.1367 108.539L74.7154 111.51H79.1136V99.4729C79.1136 97.7754 78.7535 96.3479 78.0333 95.1905C77.3132 94.0331 76.2844 93.1458 74.9469 92.5285C73.6095 91.9112 72.0277 91.6026 70.2016 91.6026C68.6069 91.6026 67.1538 91.8855 65.842 92.4513C64.556 93.0172 63.5144 93.8145 62.717 94.8433C61.9454 95.8464 61.4953 97.0424 61.3667 98.4313H66.4207C66.5751 97.5568 66.9866 96.9138 67.6553 96.5022C68.3497 96.065 69.1856 95.8464 70.163 95.8464C71.0632 95.8464 71.7834 96.0007 72.3235 96.3093C72.8636 96.618 73.2623 97.0938 73.5195 97.7368C73.7767 98.3541 73.9053 99.1386 73.9053 100.09H69.0828C67.2309 100.09 65.6877 100.347 64.4531 100.862C63.2443 101.376 62.3312 102.083 61.714 102.984C61.1224 103.884 60.8266 104.926 60.8266 106.109C60.8266 107.189 61.071 108.179 61.5596 109.079C62.074 109.954 62.8585 110.661 63.913 111.201ZM70.9346 107.613C70.4202 107.845 69.8286 107.961 69.1599 107.961C68.5941 107.961 68.0925 107.871 67.6553 107.69C67.2181 107.51 66.8837 107.253 66.6522 106.919C66.4207 106.585 66.305 106.16 66.305 105.646C66.305 105.183 66.4207 104.771 66.6522 104.411C66.8837 104.051 67.2438 103.781 67.7325 103.601C68.2469 103.395 68.9027 103.292 69.7 103.292H73.6738V103.331C73.5966 103.974 73.4423 104.578 73.2108 105.144C73.0051 105.684 72.7093 106.173 72.3235 106.61C71.9377 107.022 71.4747 107.356 70.9346 107.613ZM88.1774 110.661C89.6949 111.536 91.431 111.973 93.3858 111.973C95.8549 111.973 97.9382 111.317 99.6357 110.005C101.359 108.668 102.452 106.88 102.915 104.643H97.3981C97.2438 105.26 96.9737 105.787 96.5879 106.224C96.2021 106.636 95.7263 106.957 95.1604 107.189C94.6203 107.42 94.0159 107.536 93.3472 107.536C92.6784 107.536 92.0483 107.408 91.4567 107.15C90.8909 106.893 90.4022 106.52 89.9907 106.032C89.5792 105.517 89.2577 104.913 89.0262 104.218C88.7947 103.498 88.679 102.688 88.679 101.788C88.679 100.605 88.8719 99.5887 89.2577 98.7399C89.6692 97.8654 90.2222 97.2096 90.9166 96.7723C91.6368 96.3094 92.447 96.0779 93.3472 96.0779C94.3502 96.0779 95.2119 96.3351 95.932 96.8495C96.6779 97.3639 97.1666 98.0712 97.3981 98.9714H102.915C102.452 96.6823 101.372 94.8819 99.6743 93.5702C97.9768 92.2584 95.8806 91.6026 93.3858 91.6026C91.431 91.6026 89.6949 92.0527 88.1774 92.9529C86.66 93.8274 85.4768 95.0362 84.6281 96.5794C83.7793 98.0969 83.3549 99.8587 83.3549 101.865C83.3549 103.82 83.7793 105.556 84.6281 107.073C85.4768 108.591 86.66 109.787 88.1774 110.661ZM111.998 92.0655H107.407V111.51H112.615V101.17C112.615 100.09 112.782 99.1643 113.116 98.3927C113.477 97.6211 113.965 97.0295 114.583 96.618C115.226 96.2065 115.946 96.0007 116.743 96.0007C118.029 96.0007 118.981 96.4122 119.598 97.2353C120.215 98.0583 120.524 99.2414 120.524 100.785V111.51H125.732V101.17C125.732 100.09 125.899 99.1643 126.234 98.3927C126.594 97.6211 127.095 97.0295 127.738 96.618C128.381 96.2065 129.114 96.0007 129.937 96.0007C131.198 96.0007 132.124 96.4122 132.715 97.2353C133.332 98.0583 133.641 99.2414 133.641 100.785V111.51H138.811V100.322C138.811 98.4441 138.515 96.8623 137.923 95.5763C137.358 94.2903 136.509 93.313 135.377 92.6442C134.246 91.9498 132.831 91.6026 131.133 91.6026C129.77 91.6026 128.51 91.8984 127.353 92.4899C126.195 93.0815 125.256 93.9045 124.536 94.959C124.15 94.2132 123.649 93.5959 123.032 93.1072C122.44 92.6185 121.758 92.2456 120.987 91.9884C120.215 91.7312 119.341 91.6026 118.363 91.6026C117.052 91.6026 115.881 91.8855 114.853 92.4513C113.85 92.9915 113.039 93.7245 112.422 94.6504L111.998 92.0655Z" clip-rule="evenodd"/></svg>