<svg width="200" height="200" viewBox="0 0 200 200" fill="none" xmlns="http://www.w3.org/2000/svg">
<path d="M152.064 53.3798C142.209 48.9348 131.805 45.7813 121.118 44C119.656 46.5755 118.333 49.2254 117.154 51.9386C105.77 50.2486 94.1938 50.2486 82.8101 51.9386C81.631 49.2257 80.3077 46.5758 78.8459 44C68.1521 45.7964 57.7413 48.9573 47.8762 53.4031C28.2915 81.9494 22.9824 109.787 25.637 137.229C37.1063 145.577 49.9436 151.926 63.5911 156C66.6641 151.928 69.3834 147.608 71.7199 143.087C67.2819 141.454 62.9985 139.439 58.9191 137.066C59.9927 136.299 61.0428 135.509 62.0574 134.741C73.9273 140.241 86.8827 143.092 99.9997 143.092C113.117 143.092 126.072 140.241 137.942 134.741C138.969 135.567 140.019 136.357 141.08 137.066C136.993 139.443 132.702 141.461 128.256 143.098C130.59 147.618 133.309 151.934 136.385 156C150.044 151.943 162.891 145.596 174.362 137.24C177.477 105.416 169.042 77.8348 152.064 53.3798ZM75.0824 120.352C67.685 120.352 61.5737 113.738 61.5737 105.602C61.5737 97.4662 67.4727 90.7945 75.0588 90.7945C82.6449 90.7945 88.7091 97.4662 88.5793 105.602C88.4495 113.738 82.6213 120.352 75.0824 120.352ZM124.917 120.352C117.508 120.352 111.42 113.738 111.42 105.602C111.42 97.4662 117.319 90.7945 124.917 90.7945C132.515 90.7945 138.532 97.4662 138.402 105.602C138.272 113.738 132.456 120.352 124.917 120.352Z" fill="white"/>
</svg>
