<?xml version="1.0" encoding="UTF-8" standalone="no"?>
<svg
   width="620"
   height="620"
   viewBox="0 0 620 620"
   fill="none"
   version="1.1"
   id="svg4"
   sodipodi:docname="sdctf-white.svg"
   inkscape:version="1.3 (0e150ed6c4, 2023-07-21)"
   xmlns:inkscape="http://www.inkscape.org/namespaces/inkscape"
   xmlns:sodipodi="http://sodipodi.sourceforge.net/DTD/sodipodi-0.dtd"
   xmlns="http://www.w3.org/2000/svg"
   xmlns:svg="http://www.w3.org/2000/svg">
  <defs
     id="defs4" />
  <sodipodi:namedview
     id="namedview4"
     pagecolor="#ffffff"
     bordercolor="#000000"
     borderopacity="0.25"
     inkscape:showpageshadow="2"
     inkscape:pageopacity="0.0"
     inkscape:pagecheckerboard="0"
     inkscape:deskcolor="#d1d1d1"
     inkscape:zoom="0.84989201"
     inkscape:cx="201.20203"
     inkscape:cy="378.28335"
     inkscape:window-width="1920"
     inkscape:window-height="1001"
     inkscape:window-x="-9"
     inkscape:window-y="-9"
     inkscape:window-maximized="1"
     inkscape:current-layer="svg4" />
  <g
     id="g4"
     transform="translate(3.7040146,19.79912)">
    <path
       d="m 425.018,370.33096 -35.615,13.76 75.308,-229.979 c 0,0 -22.557,3.995 -33.758,13.137 -11.496,9.383 -24.073,33.042 -24.073,33.042 0,0 -0.272,-8.817 0,-14.456 0.353,-7.295 2.066,-14.456 2.066,-14.456 0,0 -12.88,13.053 -16.523,22.717 -3.143,8.335 -4.131,24.782 -4.131,24.782 -10.459,-25.529 -5.916,-43.61 11.003,-60.835 17.092,-17.401 61.338,-11.794 61.338,-11.794 0,0 -10.749,-9.945 -18.641,-14.108 -8.706,-4.592 -26.85,-12.391 -26.85,-12.391 l 24.784,4.13 c 0,0 -15.452,-13.029 -26.85,-18.91 -9.943,-5.130002 -26.85,-10.001002 -26.85,-10.001002 l 30.981,4.129 c 0,0 -7.117,-7.785 -14.457,-12.39 -7.341,-4.606 -26.85,-14.456 -26.85,-14.456 0,0 59.34,6.14 76.419,32.718002 9.068,14.112 18.207,35.382 18.207,35.382 0,0 3.52,-12.426 4.512,-20.602 1.264,-10.408 0,-26.847002 0,-26.847002 l 7.359,16.521002 c 0,0 3.301,-16.363002 0,-26.847002 -3.301,-10.484 -11.871,-24.782 -11.871,-24.782 0,0 32.478,18.693 31.657,41.303 -0.561,15.459002 -20.949,43.220002 -20.949,43.220002 20.292,-18.763 60.585,-42.246 90.2,-32.894 23.258,7.345 33.044,20.92 31.658,44.688 0,0 -6.463,-9.154 -11.872,-13.76 -5.409,-4.606 -15.829,-9.828 -15.829,-9.828 l 3.958,11.794 c 0,0 -12.168,-9 -19.63,-11.794 -7.463,-2.794 -35.112,-2.513 -35.112,-2.513 l 18.589,8.261 c 0,0 -16.831,-2.405 -27.163,0 -9.106,2.119 -21.764,9.977 -21.764,9.977 0,0 45.557,8.93 65.45,31.45 20.184,22.849 26.85,65.961 26.85,65.961 0,0 -5.324,-10.768 -11.178,-18.786 -8.756,-11.994 -21.764,-29.484 -21.764,-29.484 v 29.484 c 0,0 -2.957,-12.411 -8.366,-21.622 -5.408,-9.211 -13.399,-19.482 -13.399,-19.482 v 25.379 c 0,0 -6.914,-20.824 -15.829,-31.45 -10.515,-12.534 -19.417,-17.143 -33.636,-19.656 0,0 13.781,21.973 19.786,37.347 8.377,21.446 16.682,45.348 13.85,68.797 -2.266,18.769 -21.764,31.101 -21.764,31.101 0,0 4.469,-13.609 5.554,-23.239 1.084,-9.629 0,-28.389 0,-28.389 l -12.392,20.651 c 0,0 1.451,-14.399 2.065,-24.781 0.613,-10.383 0,-30.381 0,-30.381 l -12.392,21.622 c 0,0 4.617,-24.522 2.065,-42.87 -1.421,-10.214 -6.196,-22.718 -6.196,-22.718 z"
       fill="#F19A3E"
       stroke="black"
       stroke-linejoin="round"
       id="path1"
       style="fill:#ffffff;fill-opacity:1;stroke:none" />
    <path
       d="m 270.565,280.83296 c -17.273,-42.45 -61.962,-130.106 -61.962,-130.106 0,0 2.066,33.043 4.132,49.564 1.747,13.977 12.392,41.304 12.392,41.304 l -16.524,-14.457 28.916,74.347 c 0,0 -35.391,-30.702 -45.439,-53.695 -16.633,-38.067 -10.326,-70.215 0,-121.844 0,0 -9.759,8 -14.457,14.455 -10.365,14.244 -24.785,53.695 -24.785,53.695 v -39.238 c 0,0 -8.261,10.326 -18.588,28.912 -10.327,18.586 -18.589,43.368 -18.589,43.368 l 6.197,-49.563 c 0,0 -20.654,26.847 -26.85,37.173 -11.033,18.384 -24.785,49.563 -24.785,49.563 0,0 0.936,-44.251 10.327,-70.215 8.217,-22.717 30.981,-49.564 30.981,-49.564 l -26.85,10.326 c 0,0 18.588,-20.652 39.242,-33.042 13.832,-8.299 41.308,-14.457 41.308,-14.457 0,0 -39.243,-8.261002 -61.962,0 -11.84,4.305 -33.046,18.587 -33.046,18.587 l 8.262,-20.652 c 0,0 -14.202,5.133 -20.654,12.391 -6.453,7.258 -20.654,22.716 -20.654,22.716 l 6.196,-26.846 c 0,0 -10.571,8.505 -20.654,18.586 -10.082,10.081 -22.719,26.847 -22.719,26.847 3.66,-33.688 28.846,-65.569002 59.896,-78.476002 18.753,-7.795 31.374,-7.605 51.635,-6.195 33.919,2.36 80.549,33.042002 80.549,33.042002 0,0 -13.757,-26.071002 -26.849,-39.238002 -30.605,-30.778 -65.406,-38.685 -105.335,-18.586 0,0 10.119,-13.796 18.589,-20.652 8.469,-6.855 24.784,-14.456 24.784,-14.456 l -26.85,-4.13 c 28.659,-11.13300028 63.633,-17.6590003 88.812,4.13 14.77,12.782 26.849,35.108 26.849,35.108 v -28.912 c 0,0 9.175,17.269 12.393,37.172 3.092,19.125 4.13,61.955002 4.13,61.955002 0,0 10.073,-26.844002 22.72,-39.238002 13.656,-13.383 43.373,-22.717 43.373,-22.717 l -12.392,12.391 c 0,0 21.438,-0.817 35.111,4.131 15.636,5.657 35.112,24.781 35.112,24.781 0,0 -34.088,-11.636 -57.831,-8.26 -27.88,3.964 -53.7,28.912002 -53.7,28.912002 0,0 22.509,2.035 47.504,12.391 17.875,7.407 38.031,21.506 47.504,30.978 22.719,22.716 22.719,72.28 22.719,72.28 0,0 -8.812,-15.91 -14.458,-24.782 -5.646,-8.872 -14.457,-20.651 -14.457,-20.651 l -2.066,18.586 c 0,0 -5.487,-10.521 -10.327,-18.586 -4.839,-8.065 -26.85,-30.978 -26.85,-30.978 l 4.131,24.782 c 0,0 -13.056,-16.869 -20.654,-24.782 -12.085,-12.585 -33.046,-22.716 -33.046,-22.716 0,0 46.403,85.997 68.158,128.039 24.725,47.783 60.045,132.391 60.045,132.391 l -43.65,14.809 c 0,0 -14.854,-81.211 -34.984,-130.678 z"
       fill="#51C0C0"
       stroke="black"
       stroke-linejoin="round"
       id="path2"
       style="fill:#ffffff;fill-opacity:1;stroke:none" />
    <path
       d="m 98.794,579.24396 c -19.898,-0.204 -39.795,-0.531 -59.733,-0.899 -2.411,-0.122 -4.208,-1.102 -5.352,-2.859 -1.104,-1.961 -1.676,-5.025 -1.716,-9.233 -0.327,-12.909 -0.613,-25.859 -0.94,-38.932 -0.082,-4.208 0.368,-7.108 1.348,-8.661 1.144,-1.838 2.819,-2.573 5.311,-2.124 17.038,2.778 34.075,5.27 51.112,7.722 1.675,0.204 2.82,-0.368 3.636,-1.798 0.859,-1.675 1.185,-3.595 1.145,-5.965 0,-3.268 -0.532,-5.801 -1.389,-7.476 -0.858,-1.715 -2.043,-2.859 -3.718,-3.35 -9.561,-3.921 -19.122,-7.925 -28.682,-12.051 -8.988,-4.126 -16.261,-10.703 -21.981,-19.977 -5.475,-9.395 -8.498,-23.694 -8.907,-42.486 -0.286,-11.766 -0.531,-23.531 -0.817,-35.337 -0.327,-18.874 2.738,-31.701 9.601,-38.156 6.905,-6.128 16.629,-5.842 29.131,0.531 18.019,9.273 36.077,18.384 54.094,27.452 2.493,1.226 4.209,2.819 5.312,4.985 1.144,1.879 1.798,4.575 1.798,7.843 0.164,10.499 0.408,20.998 0.572,31.497 0.082,3.268 -0.45,5.638 -1.553,6.781 -1.022,1.022 -2.778,1.104 -5.189,0.205 -14.912,-5.679 -29.866,-11.398 -44.819,-17.158 -1.676,-0.653 -2.901,-0.204 -3.759,1.226 -0.899,1.307 -1.267,3.309 -1.267,5.923 0.082,2.655 0.572,5.066 1.471,7.231 0.94,2.165 2.288,3.636 3.922,4.372 9.602,5.228 19.162,10.375 28.682,15.401 9.029,4.698 16.301,11.111 21.899,19.159 5.597,7.884 8.58,19.037 8.784,33.622 0.164,9.11 0.327,18.179 0.45,27.248 0.245,14.666 -3.146,25.859 -10.01,33.622 -6.864,7.843 -16.343,11.724 -28.436,11.642 z m 130.455,1.144 c -21.286,-0.204 -42.532,-0.408 -63.778,-0.572 -2.41,-0.04 -4.167,-0.694 -5.352,-2.124 -1.022,-1.471 -1.512,-3.717 -1.593,-6.822 -0.776,-53.067 -1.594,-106.134 -2.37,-159.283 -0.081,-3.146 0.327,-5.106 1.39,-5.965 1.143,-0.939 2.982,-0.776 5.433,0.449 21.695,10.132 43.309,19.977 64.962,29.578 16.098,6.863 27.987,14.993 35.709,24.143 7.804,8.824 11.767,19.16 11.848,31.293 0.042,18.056 0.123,36.073 0.123,54.211 0.082,12.092 -3.717,20.876 -11.399,26.472 -7.559,5.842 -19.203,8.865 -34.973,8.62 z m -28.968,-115.53 c 0.327,24.512 0.532,49.023 0.818,73.616 7.599,0.939 15.075,1.797 22.634,2.736 3.023,0.368 5.27,-0.162 6.619,-1.511 1.553,-1.47 2.247,-3.799 2.247,-7.108 -0.122,-15.932 -0.245,-31.824 -0.326,-47.675 -0.082,-3.35 -0.859,-5.923 -2.411,-7.843 -1.431,-2.002 -3.637,-3.554 -6.782,-4.617 -7.559,-2.451 -15.117,-5.024 -22.799,-7.598 z m -101.487,114.386 c -19.898,-0.204 -39.795,-0.531 -59.733,-0.899 -2.411,-0.122 -4.208,-1.102 -5.352,-2.859 -1.104,-1.961 -1.676,-5.025 -1.716,-9.233 -0.327,-12.909 -0.613,-25.859 -0.94,-38.932 -0.082,-4.208 0.368,-7.108 1.348,-8.661 1.144,-1.838 2.819,-2.573 5.311,-2.124 17.038,2.778 34.075,5.27 51.112,7.722 1.675,0.204 2.82,-0.368 3.636,-1.798 0.859,-1.675 1.185,-3.595 1.145,-5.965 0,-3.268 -0.532,-5.801 -1.389,-7.476 -0.858,-1.715 -2.043,-2.859 -3.718,-3.35 -9.561,-3.921 -19.122,-7.925 -28.682,-12.051 -8.988,-4.126 -16.261,-10.703 -21.981,-19.977 -5.475,-9.395 -8.498,-23.694 -8.907,-42.486 -0.286,-11.766 -0.531,-23.531 -0.817,-35.337 -0.327,-18.874 2.738,-31.701 9.601,-38.156 6.905,-6.128 16.629,-5.842 29.131,0.531 18.019,9.273 36.077,18.384 54.094,27.452 2.493,1.226 4.209,2.819 5.312,4.985 1.144,1.879 1.798,4.575 1.798,7.843 0.164,10.499 0.408,20.998 0.572,31.497 0.082,3.268 -0.45,5.638 -1.553,6.781 -1.022,1.022 -2.778,1.104 -5.189,0.205 -14.912,-5.679 -29.866,-11.398 -44.819,-17.158 -1.676,-0.653 -2.901,-0.204 -3.759,1.226 -0.899,1.307 -1.267,3.309 -1.267,5.923 0.082,2.655 0.572,5.066 1.471,7.231 0.94,2.165 2.288,3.636 3.922,4.372 9.602,5.228 19.162,10.375 28.682,15.401 9.029,4.698 16.301,11.111 21.899,19.159 5.597,7.884 8.58,19.037 8.784,33.622 0.164,9.11 0.327,18.179 0.45,27.248 0.245,14.666 -3.146,25.859 -10.01,33.622 -6.864,7.843 -16.343,11.724 -28.436,11.642 z m 130.455,1.144 c -21.286,-0.204 -42.532,-0.408 -63.778,-0.572 -2.41,-0.04 -4.167,-0.694 -5.352,-2.124 -1.022,-1.471 -1.512,-3.717 -1.593,-6.822 -0.776,-53.067 -1.594,-106.134 -2.37,-159.283 -0.081,-3.146 0.327,-5.106 1.39,-5.965 1.143,-0.939 2.982,-0.776 5.433,0.449 21.695,10.132 43.309,19.977 64.962,29.578 16.098,6.863 27.987,14.993 35.709,24.143 7.804,8.824 11.767,19.16 11.848,31.293 0.042,18.056 0.123,36.073 0.123,54.211 0.082,12.092 -3.717,20.876 -11.399,26.472 -7.559,5.842 -19.203,8.865 -34.973,8.62 z m -28.968,-115.53 c 0.327,24.512 0.532,49.023 0.818,73.616 7.599,0.939 15.075,1.797 22.634,2.736 3.023,0.368 5.27,-0.162 6.619,-1.511 1.553,-1.47 2.247,-3.799 2.247,-7.108 -0.122,-15.932 -0.245,-31.824 -0.326,-47.675 -0.082,-3.35 -0.859,-5.923 -2.411,-7.843 -1.431,-2.002 -3.637,-3.554 -6.782,-4.617 -7.559,-2.451 -15.117,-5.024 -22.799,-7.598 z m -101.487,114.386 c -19.898,-0.204 -39.795,-0.531 -59.733,-0.899 -2.411,-0.122 -4.208,-1.102 -5.352,-2.859 -1.104,-1.961 -1.676,-5.025 -1.716,-9.233 -0.327,-12.909 -0.613,-25.859 -0.94,-38.932 -0.082,-4.208 0.368,-7.108 1.348,-8.661 1.144,-1.838 2.819,-2.573 5.311,-2.124 17.038,2.778 34.075,5.27 51.112,7.722 1.675,0.204 2.82,-0.368 3.636,-1.798 0.859,-1.675 1.185,-3.595 1.145,-5.965 0,-3.268 -0.532,-5.801 -1.389,-7.476 -0.858,-1.715 -2.043,-2.859 -3.718,-3.35 -9.561,-3.921 -19.122,-7.925 -28.682,-12.051 -8.988,-4.126 -16.261,-10.703 -21.981,-19.977 -5.475,-9.395 -8.498,-23.694 -8.907,-42.486 -0.286,-11.766 -0.531,-23.531 -0.817,-35.337 -0.327,-18.874 2.738,-31.701 9.601,-38.156 6.905,-6.128 16.629,-5.842 29.131,0.531 18.019,9.273 36.077,18.384 54.094,27.452 2.493,1.226 4.209,2.819 5.312,4.985 1.144,1.879 1.798,4.575 1.798,7.843 0.164,10.499 0.408,20.998 0.572,31.497 0.082,3.268 -0.45,5.638 -1.553,6.781 -1.022,1.022 -2.778,1.104 -5.189,0.205 -14.912,-5.679 -29.866,-11.398 -44.819,-17.158 -1.676,-0.653 -2.901,-0.204 -3.759,1.226 -0.899,1.307 -1.267,3.309 -1.267,5.923 0.082,2.655 0.572,5.066 1.471,7.231 0.94,2.165 2.288,3.636 3.922,4.372 9.602,5.228 19.162,10.375 28.682,15.401 9.029,4.698 16.301,11.111 21.899,19.159 5.597,7.884 8.58,19.037 8.784,33.622 0.164,9.11 0.327,18.179 0.45,27.248 0.245,14.666 -3.146,25.859 -10.01,33.622 -6.864,7.843 -16.343,11.724 -28.436,11.642 z m 130.455,1.144 c -21.286,-0.204 -42.532,-0.408 -63.778,-0.572 -2.41,-0.04 -4.167,-0.694 -5.352,-2.124 -1.022,-1.471 -1.512,-3.717 -1.593,-6.822 -0.776,-53.067 -1.594,-106.134 -2.37,-159.283 -0.081,-3.146 0.327,-5.106 1.39,-5.965 1.143,-0.939 2.982,-0.776 5.433,0.449 21.695,10.132 43.309,19.977 64.962,29.578 16.098,6.863 27.987,14.993 35.709,24.143 7.804,8.824 11.767,19.16 11.848,31.293 0.042,18.056 0.123,36.073 0.123,54.211 0.082,12.092 -3.717,20.876 -11.399,26.472 -7.559,5.842 -19.203,8.865 -34.973,8.62 z m -28.968,-115.53 c 0.327,24.512 0.532,49.023 0.818,73.616 7.599,0.939 15.075,1.797 22.634,2.736 3.023,0.368 5.27,-0.162 6.619,-1.511 1.553,-1.47 2.247,-3.799 2.247,-7.108 -0.122,-15.932 -0.245,-31.824 -0.326,-47.675 -0.082,-3.35 -0.859,-5.923 -2.411,-7.843 -1.431,-2.002 -3.637,-3.554 -6.782,-4.617 -7.559,-2.451 -15.117,-5.024 -22.799,-7.598 z m -101.487,114.386 c -19.898,-0.204 -39.795,-0.531 -59.733,-0.899 -2.411,-0.122 -4.208,-1.102 -5.352,-2.859 -1.104,-1.961 -1.676,-5.025 -1.716,-9.233 -0.327,-12.909 -0.613,-25.859 -0.94,-38.932 -0.082,-4.208 0.368,-7.108 1.348,-8.661 1.144,-1.838 2.819,-2.573 5.311,-2.124 17.038,2.778 34.075,5.27 51.112,7.722 1.675,0.204 2.82,-0.368 3.636,-1.798 0.859,-1.675 1.185,-3.595 1.145,-5.965 0,-3.268 -0.532,-5.801 -1.389,-7.476 -0.858,-1.715 -2.043,-2.859 -3.718,-3.35 -9.561,-3.921 -19.122,-7.925 -28.682,-12.051 -8.988,-4.126 -16.261,-10.703 -21.981,-19.977 -5.475,-9.395 -8.498,-23.694 -8.907,-42.486 -0.286,-11.766 -0.531,-23.531 -0.817,-35.337 -0.327,-18.874 2.738,-31.701 9.601,-38.156 6.905,-6.128 16.629,-5.842 29.131,0.531 18.019,9.273 36.077,18.384 54.094,27.452 2.493,1.226 4.209,2.819 5.312,4.985 1.144,1.879 1.798,4.575 1.798,7.843 0.164,10.499 0.408,20.998 0.572,31.497 0.082,3.268 -0.45,5.638 -1.553,6.781 -1.022,1.022 -2.778,1.104 -5.189,0.205 -14.912,-5.679 -29.866,-11.398 -44.819,-17.158 -1.676,-0.653 -2.901,-0.204 -3.759,1.226 -0.899,1.307 -1.267,3.309 -1.267,5.923 0.082,2.655 0.572,5.066 1.471,7.231 0.94,2.165 2.288,3.636 3.922,4.372 9.602,5.228 19.162,10.375 28.682,15.401 9.029,4.698 16.301,11.111 21.899,19.159 5.597,7.884 8.58,19.037 8.784,33.622 0.164,9.11 0.327,18.179 0.45,27.248 0.245,14.666 -3.146,25.859 -10.01,33.622 -6.864,7.843 -16.343,11.724 -28.436,11.642 z m 130.455,1.144 c -21.286,-0.204 -42.532,-0.408 -63.778,-0.572 -2.41,-0.04 -4.167,-0.694 -5.352,-2.124 -1.022,-1.471 -1.512,-3.717 -1.593,-6.822 -0.776,-53.067 -1.594,-106.134 -2.37,-159.283 -0.081,-3.146 0.327,-5.106 1.39,-5.965 1.143,-0.939 2.982,-0.776 5.433,0.449 21.695,10.132 43.309,19.977 64.962,29.578 16.098,6.863 27.987,14.993 35.709,24.143 7.804,8.824 11.767,19.16 11.848,31.293 0.042,18.056 0.123,36.073 0.123,54.211 0.082,12.092 -3.717,20.876 -11.399,26.472 -7.559,5.842 -19.203,8.865 -34.973,8.62 z m -28.968,-115.53 c 0.327,24.512 0.532,49.023 0.818,73.616 7.599,0.939 15.075,1.797 22.634,2.736 3.023,0.368 5.27,-0.162 6.619,-1.511 1.553,-1.47 2.247,-3.799 2.247,-7.108 -0.122,-15.932 -0.245,-31.824 -0.326,-47.675 -0.082,-3.35 -0.859,-5.923 -2.411,-7.843 -1.431,-2.002 -3.637,-3.554 -6.782,-4.617 -7.559,-2.451 -15.117,-5.024 -22.799,-7.598 z"
       fill="#51C0C0"
       stroke="black"
       id="path3"
       style="fill:#ffffff;fill-opacity:1;stroke:none" />
    <path
       d="m 385.561,579.58996 c -14.373,0.263 -28.734,0.525 -43.083,0.788 -14.702,0.323 -25.694,-2.651 -32.903,-8.707 -7.069,-5.769 -10.638,-14.906 -10.674,-27.519 -0.07,-18.681 -0.153,-37.361 -0.247,-56.042 -0.035,-12.577 3.393,-22.861 10.249,-30.959 6.962,-8.528 17.636,-15.121 31.985,-19.672 13.995,-4.467 28.002,-8.946 42.022,-13.437 2.191,-0.681 3.746,-0.537 4.701,0.501 1.024,0.825 1.59,2.688 1.625,5.447 0.165,8.91 0.33,17.773 0.495,26.587 0.071,2.76 -0.459,4.91 -1.449,6.486 -0.919,1.362 -2.439,2.329 -4.665,2.867 -11.592,2.771 -23.209,5.554 -34.848,8.349 -3.57,0.824 -6.22,2.329 -7.952,4.443 -1.697,2.007 -2.545,4.586 -2.509,7.847 0.141,15.48 0.294,30.948 0.459,46.403 0.035,3.261 0.919,5.626 2.686,7.024 1.767,1.254 4.488,1.72 8.093,1.397 11.781,-1.123 23.539,-2.234 35.273,-3.333 2.226,-0.215 3.816,0.251 4.806,1.505 1.025,1.075 1.626,2.974 1.661,5.769 0.165,8.672 0.33,17.391 0.495,26.158 0.035,2.795 -0.46,4.837 -1.484,6.199 -0.919,1.218 -2.51,1.863 -4.736,1.899 z m 86.306,-1.648 c -9.519,0.167 -19.05,0.346 -28.593,0.538 -2.262,0.035 -3.888,-0.574 -4.983,-1.828 -0.99,-1.433 -1.52,-3.584 -1.591,-6.629 -0.894,-38.795 -1.778,-77.53 -2.65,-116.205 -8.482,2.055 -16.976,4.085 -25.482,6.092 -2.191,0.538 -3.817,0.323 -4.912,-0.609 -0.919,-1.075 -1.414,-3.046 -1.485,-5.912 -0.164,-9.03 -0.341,-18.084 -0.53,-27.161 -0.07,-2.831 0.354,-5.053 1.237,-6.522 1.025,-1.684 2.616,-2.867 4.807,-3.583 30.3,-9.675 60.6,-19.338 90.9,-28.988 2.191,-0.717 3.782,-0.43 4.736,0.86 1.095,1.039 1.661,3.296 1.767,6.629 0.306,10.726 0.624,21.463 0.954,32.213 0.106,3.368 -0.318,6.02 -1.343,7.883 -0.883,1.612 -2.403,2.687 -4.63,3.225 -8.482,2.054 -16.964,4.097 -25.446,6.127 1.131,41.542 2.262,83.083 3.393,124.625 0.071,3.225 -0.424,5.554 -1.449,7.094 -0.883,1.398 -2.439,2.115 -4.7,2.151 z m 89.592,-1.684 c -9.142,0.167 -18.272,0.334 -27.391,0.501 -2.226,0.036 -3.923,-0.681 -5.018,-2.114 -0.99,-1.612 -1.52,-4.085 -1.626,-7.525 -1.861,-59.194 -3.711,-118.402 -5.549,-177.62 -0.106,-3.405 0.283,-6.02 1.131,-7.74 0.99,-1.971 2.58,-3.261 4.771,-3.978 25.589,-8.169 51.188,-16.256 76.799,-24.258 2.192,-0.645 3.747,-0.215 4.772,1.326 1.095,1.29 1.696,3.977 1.837,7.811 0.448,12.255 0.908,24.533 1.379,36.836 0.141,3.87 -0.248,6.916 -1.237,9.03 -0.884,1.863 -2.404,3.009 -4.595,3.475 -14.749,3.416 -29.499,6.868 -44.248,10.356 0.354,10.128 0.707,20.257 1.06,30.386 10.108,-1.959 20.216,-3.906 30.324,-5.841 2.156,-0.43 3.781,0.143 4.771,1.828 1.096,1.397 1.732,4.12 1.873,7.954 0.448,12.255 0.896,24.51 1.343,36.764 0.141,3.906 -0.247,6.844 -1.237,8.815 -0.883,1.72 -2.438,2.724 -4.63,3.01 -10.178,1.194 -20.345,2.365 -30.5,3.511 0.66,19.111 1.308,38.126 1.944,57.045 0.106,3.62 -0.318,6.271 -1.308,8.027 -0.883,1.541 -2.473,2.329 -4.665,2.401 z"
       fill="#F19A3E"
       stroke="#F19A3E"
       id="path4"
       style="fill:#ffffff;fill-opacity:1;stroke:none" />
  </g>
</svg>
