<svg width="200" height="200" viewBox="0 0 200 200" fill="none" xmlns="http://www.w3.org/2000/svg">
<path fill-rule="evenodd" clip-rule="evenodd" d="M83.2506 76.3679L124.835 99.9995L83.2506 123.631V76.3679ZM179 100.043C179 100.043 179 74.0091 175.68 61.5162C173.846 54.6146 168.473 49.1981 161.615 47.3635C149.253 44 99.5 44 99.5 44C99.5 44 49.747 44 37.3852 47.3635C30.5272 49.1981 25.1544 54.6146 23.3198 61.5162C20 73.9654 20 100.043 20 100.043C20 100.043 20 126.077 23.3198 138.57C25.1544 145.472 30.5272 150.67 37.3852 152.504C49.747 155.824 99.5 155.824 99.5 155.824C99.5 155.824 149.253 155.824 161.615 152.461C168.473 150.626 173.846 145.428 175.68 138.526C179 126.077 179 100.043 179 100.043Z" fill="white"/>
</svg>
